<?xml version="1.0" encoding="utf-8"?><svg xmlns="http://www.w3.org/2000/svg" xmlns:xlink="http://www.w3.org/1999/xlink" version="1.1" class="page" pageAlignment="none" x="0px" y="0px" width="842px" height="595px" viewBox="0 0 842 595" enable-background="new 0 0 842 595" xml:space="preserve"><defs/><style type="text/css"/><style type="text/css"/><g type="LAYER" name="workspace" id="workspace" locked="true"/><g type="LAYER" name="Layer 01" id="Layer 01"><path transform="matrix(1 0 0 1 -86.67272925461906 -2.754629629629676)" width="1021.8078151666209" height="661.7997685185189" stroke-width="1.15519633707994" stroke-miterlimit="3" stroke="#000000" fill="#030000" d="M-1.709743457922741e-14,2.220446049250313e-16 L1021.8078151666209,2.220446049250313e-16 L1021.8078151666209,661.7997685185189 L-1.709743457922741e-14,661.7997685185189 L-1.709743457922741e-14,2.220446049250313e-16 Z "/><path transform="matrix(1 0 0 1 -86.67272925461906 87.21354166666684)" width="1025.1280680185027" height="4.574652777777715" stroke-width="1.15519633707994" stroke-miterlimit="3" stroke="#000000" fill="#FFFFFF" d="M-1.709743457922741e-14,2.842170943040401e-14 L1025.1280680185027,2.842170943040401e-14 L1025.1280680185027,4.574652777777743 L-1.709743457922741e-14,4.574652777777743 L-1.709743457922741e-14,2.842170943040401e-14 Z "/><path transform="matrix(1 0 0 1 -87.91782407407457 325.09548611111103)" width="1025.128068018503" height="4.574652777777715" stroke-width="1.15519633707994" stroke-miterlimit="3" stroke="#000000" fill="#D32C2C" d="M-2.0749699972164762e-14,0 L1025.128068018503,0 L1025.128068018503,4.574652777777715 L-2.0749699972164762e-14,4.574652777777715 L-2.0749699972164762e-14,0 Z "/><path transform="matrix(1 0 0 1 -86.25769764813252 178.70659722222163)" width="1025.128068018503" height="4.574652777777715" stroke-width="1.15519633707994" stroke-miterlimit="3" stroke="#000000" fill="#FFFFFF" d="M-3.175237850427948e-14,2.842170943040401e-14 L1025.128068018503,2.842170943040401e-14 L1025.128068018503,4.574652777777743 L-3.175237850427948e-14,4.574652777777743 L-3.175237850427948e-14,2.842170943040401e-14 Z "/><path transform="matrix(1 0 0 1 -87.91782407407435 501.2196180555554)" width="1025.1280680185027" height="4.574652777777658" stroke-width="1.15519633707994" stroke-miterlimit="3" stroke="#000000" fill="#FFFFFF" d="M-1.7095270103181294e-14,-1.1368683772161603e-13 L1025.1280680185027,-1.1368683772161603e-13 L1025.1280680185027,4.574652777777544 L-1.7095270103181294e-14,4.574652777777544 L-1.7095270103181294e-14,-1.1368683772161603e-13 Z "/><path transform="matrix(1 0 0 1 -87.08776086110355 407.4392361111111)" width="1025.1280680185027" height="4.574652777777658" stroke-width="1.15519633707994" stroke-miterlimit="3" stroke="#000000" fill="#D32C2C" d="M-3.0531133177191805e-14,1.1368683772161603e-13 L1025.1280680185027,1.1368683772161603e-13 L1025.1280680185027,4.5746527777777715 L-3.0531133177191805e-14,4.5746527777777715 L-3.0531133177191805e-14,1.1368683772161603e-13 Z "/></g></svg>